<?xml version="1.0" encoding="utf-8"?>
<!-- Generator: Adobe Illustrator 25.2.0, SVG Export Plug-In . SVG Version: 6.00 Build 0)  -->
<svg version="1.1" id="Layer_1" xmlns="http://www.w3.org/2000/svg" xmlns:xlink="http://www.w3.org/1999/xlink" x="0px" y="0px"
	 viewBox="0 0 407.99 407.99" style="enable-background:new 0 0 407.99 407.99;" xml:space="preserve">
<style type="text/css">
	.st0{fill:#FCEE12;}
	.st1{fill:#4B4B4B;}
</style>
<g>
	<path class="st0" d="M293.45,353.99h-178.9c-33.44,0-60.55-27.11-60.55-60.55V114.55C54,81.11,81.11,54,114.55,54h178.89
		c33.44,0,60.55,27.11,60.55,60.55v178.89C354,326.88,326.89,353.99,293.45,353.99z"/>
	<g>
		<path class="st1" d="M239,100.22c-9.14-3.65-19.01-5.48-28.88-5.48c-5.85,0-11.7,0.73-17.55,1.83l-23.58,40.56
			c9.69-5.3,20.47-7.86,31.62-7.67c6.76,0,13.34,0.91,19.74,2.74L239,100.22z"/>
		<path class="st1" d="M95.34,209.29c0,58.46,49.71,103.95,107.65,103.95c60.68,0,109.67-48.96,109.67-108.52
			c0-34.89-16.82-65.59-41.86-86.05l-18.28,31.61c16.08,13.7,25.41,33.8,25.41,54.99c0,40.56-33.63,73.81-74.94,73.81
			s-74.76-33.43-74.76-74.72v-0.18c0-4.93,0.36-9.87,1.28-14.62L95.34,209.29z"/>
	</g>
</g>
</svg>
